# xmcd
#
# Track frame offsets:
# 150
# 23030
# 39340
# 54850
# 64160
# 80197
# 91875
# 106635
# 118107
# 132380
# 144855
# 164382
# 177950
# 190645
# 201747
#
# Disc length: 3016 seconds
#
#
# Revision: 0
# Processed by: cddbd v1.4PL0 Copyright (c) Steve Scherf et al.
# Submitted via: FreeRIP 2.35 
#
DISCID=c80bc60f
DTITLE=Rock 'n Rodeo - Country Music
DYEAR=1900
DGENRE=Country
TTITLE0=Born To Be Blue
TTITLE1=I Wanna Hold You
TTITLE2=I Feel Lucky
TTITLE3=I Feel Fine
TTITLE4=Turn It Loose
TTITLE5=Too Much Fun
TTITLE6=Fly Me South
TTITLE7=One Way Track
TTITLE8=Fallin Outta Love
TTITLE9=Don't Be Cruel
TTITLE10=You Can Sleep While I Drive
TTITLE11=Bring My Baby Home
TTITLE12=Wrong Sinde Of Memphis
TTITLE13=That's What I Like About You
TTITLE14=The Weight
EXTD=
EXTT0=
EXTT1=
EXTT2=
EXTT3=
EXTT4=
EXTT5=
EXTT6=
EXTT7=
EXTT8=
EXTT9=
EXTT10=
EXTT11=
EXTT12=
EXTT13=
EXTT14=
PLAYORDER=
